# xmcd
#
# Track frame offsets: 
#        150
#        23775
#        63687
#        95400
#        127440
#        167942
#        215402
#
# Disc length: 3272 seconds
#
# Revision: 3
# Processed by: cddbd v1.5.2PL0 Copyright (c) Steve Scherf et al.
# Submitted via: ExactAudioCopy v1.2
#
DISCID=6a0cc607
DTITLE=The Ford Blues Band - live at breminale 92
DYEAR=1992
DGENRE=
TTITLE0=take out some insurance
TTITLE1=oh why
TTITLE2=dance with me
TTITLE3=long as i have you
TTITLE4=self preservation
TTITLE5=i ain't got you
TTITLE6=walking by myself
EXTD=
EXTT0=
EXTT1=
EXTT2=
EXTT3=
EXTT4=
EXTT5=
EXTT6=
PLAYORDER=
